HIERARCHY
ROOT Hips
{
    OFFSET 0.000000 0.000000 0.000000
    CHANNELS 6 Xposition Yposition Zposition Zrotation Xrotation Yrotation
    JOINT Spine
    {
        OFFSET -0.000000 7.236184 0.000000
        CHANNELS 3 Zrotation Xrotation Yrotation
        JOINT Spine1
        {
            OFFSET -0.000000 20.420147 0.000000
            CHANNELS 3 Zrotation Xrotation Yrotation
            JOINT Neck
            {
                OFFSET -0.000000 20.336288 1.848754
                CHANNELS 3 Zrotation Xrotation Yrotation
                JOINT Head
                {
                    OFFSET -0.000000 12.354461 -1.764923
                    CHANNELS 3 Zrotation Xrotation Yrotation
                    End Site
                    {
                        OFFSET -0.000000 22.061537 0.000000
                    }
                }
            }
            JOINT LeftShoulder
            {
                OFFSET 3.573296 18.396038 -0.314103
                CHANNELS 3 Zrotation Xrotation Yrotation
                JOINT LeftArm
                {
                    OFFSET 10.880760 0.000000 0.000000
                    CHANNELS 3 Zrotation Xrotation Yrotation
                    JOINT LeftForeArm
                    {
                        OFFSET 27.185530 0.000000 0.000000
                        CHANNELS 3 Zrotation Xrotation Yrotation
                        JOINT LeftHand
                        {
                            OFFSET 27.825975 0.000000 0.000000
                            CHANNELS 3 Zrotation Xrotation Yrotation
                            End Site
                            {
                                OFFSET 13.236923 0.000000 0.000000
                            }
                        }
                    }
                }
            }
            JOINT RightShoulder
            {
                OFFSET -3.474926 18.396038 -0.314103
                CHANNELS 3 Zrotation Xrotation Yrotation
                JOINT RightArm
                {
                    OFFSET -10.880760 0.000000 0.000000
                    CHANNELS 3 Zrotation Xrotation Yrotation
                    JOINT RightForeArm
                    {
                        OFFSET -27.185530 0.000000 0.000000
                        CHANNELS 3 Zrotation Xrotation Yrotation
                        JOINT RightHand
                        {
                            OFFSET -27.825975 0.000000 0.000000
                            CHANNELS 3 Zrotation Xrotation Yrotation
                            End Site
                            {
                                OFFSET -13.236923 0.000000 0.000000
                            }
                        }
                    }
                }
            }
        }
    }
    JOINT LeftUpLeg
    {
        OFFSET 8.824615 0.000000 0.000000
        CHANNELS 3 Zrotation Xrotation Yrotation
        JOINT LeftLeg
        {
            OFFSET -0.000000 -35.111282 0.000000
            CHANNELS 3 Zrotation Xrotation Yrotation
            JOINT LeftFoot
            {
                OFFSET -0.000000 -42.324711 0.000000
                CHANNELS 3 Zrotation Xrotation Yrotation
                JOINT LeftToeBase
                {
                    OFFSET -0.000000 -5.735999 13.236923
                    CHANNELS 3 Zrotation Xrotation Yrotation
                    End Site
                    {
                        OFFSET -0.000000 0.000000 3.529846
                    }
                }
            }
        }
    }
    JOINT RightUpLeg
    {
        OFFSET -8.824615 0.000000 0.000000
        CHANNELS 3 Zrotation Xrotation Yrotation
        JOINT RightLeg
        {
            OFFSET -0.000000 -35.111282 0.000000
            CHANNELS 3 Zrotation Xrotation Yrotation
            JOINT RightFoot
            {
                OFFSET -0.000000 -42.324711 0.000000
                CHANNELS 3 Zrotation Xrotation Yrotation
                JOINT RightToeBase
                {
                    OFFSET -0.000000 -5.735999 13.236923
                    CHANNELS 3 Zrotation Xrotation Yrotation
                    End Site
                    {
                        OFFSET -0.000000 0.000000 3.529846
                    }
                }
            }
        }
    }
}
MOTION
Frames:    11
Frame Time:    0.008333
13.527632    80.357597    103.599045    1.510066    -7.417778    -160.750031    -1.599743    -11.921396    0.415568    1.051010    6.136909    0.526231    1.109654    8.337635    -5.343547    6.690658    -10.304025    -4.103551    0.806884    16.081358    -0.383449    -46.853363    46.653324    -40.017326    -1.341717    -7.637700    -18.402222    21.745127    -7.403422    2.361563    5.446119    18.413340    -5.630248    46.907696    43.642578    32.445034    0.318908    -19.932182    33.463810    -6.100861    -19.711155    -6.201961    5.771234    -23.596975    8.461607    -7.351659    26.072845    34.910419    -0.932583    -6.207623    -8.723257    -0.727364    -1.414315    0.808337    -3.991282    -2.653769    -1.241863    5.130785    2.552630    1.744699    -1.112127    -5.733214    -15.808584    -0.558952    0.065403    0.604495
13.437386    80.333359    103.587387    1.686122    -7.391267    -160.259018    -1.556563    -11.881688    0.442304    1.037008    6.164406    0.548424    1.100885    8.270277    -5.476703    6.867155    -10.440632    -4.193739    0.829830    16.117718    -0.293038    -47.143417    46.507553    -39.775642    -1.392949    -7.887091    -18.281136    21.944633    -7.658529    2.345501    5.414874    18.406740    -5.574603    46.928856    43.564831    32.397747    0.280275    -20.086262    34.328686    -6.157066    -19.850513    -6.267268    5.748653    -23.880440    8.609629    -7.456113    26.327475    35.300068    -0.775342    -6.326180    -8.661965    -0.720014    -1.447621    0.800217    -3.862126    -2.629927    -1.548696    5.074878    2.653559    1.564917    -1.045911    -5.840775    -15.833001    -0.552792    0.032941    0.597860
13.343793    80.308044    103.569580    1.864910    -7.353929    -159.745468    -1.512318    -11.842378    0.473510    1.018439    6.187634    0.575345    1.091381    8.209812    -5.619824    7.057099    -10.562758    -4.291514    0.852259    16.156424    -0.202855    -47.454258    46.354122    -39.498817    -1.445746    -8.130983    -18.138588    22.145897    -7.905561    2.342157    5.382805    18.400417    -5.522689    46.930290    43.502045    32.371384    0.229018    -20.201809    35.207092    -6.189347    -19.949282    -6.310965    5.711227    -24.137802    8.762081    -7.539500    26.554392    35.665401    -0.614907    -6.459356    -8.590139    -0.714792    -1.465698    0.794440    -3.729137    -2.602714    -1.858430    5.020049    2.777469    1.379302    -0.982309    -5.959970    -15.868279    -0.543896    -0.003550    0.588268
13.245541    80.281296    103.545296    2.046720    -7.305810    -159.205383    -1.468077    -11.802971    0.510551    0.995638    6.205187    0.608386    1.079943    8.156493    -5.775103    7.263082    -10.670803    -4.398463    0.872903    16.197359    -0.114495    -47.786514    46.191425    -39.181942    -1.497875    -8.367724    -17.974340    22.340429    -8.142626    2.351285    5.349798    18.394320    -5.475776    46.915138    43.451580    32.363617    0.163458    -20.282070    36.102318    -6.200962    -20.009598    -6.335551    5.657568    -24.371540    8.915358    -7.601261    26.758337    36.001408    -0.449561    -6.609639    -8.506918    -0.711151    -1.468485    0.790397    -3.593073    -2.573711    -2.173843    4.966692    2.929104    1.188597    -0.921217    -6.092970    -15.916965    -0.533464    -0.043631    0.577017
13.141471    80.252586    103.514168    2.232340    -7.247347    -158.633759    -1.425360    -11.763694    0.555050    0.969277    6.215691    0.649188    1.065676    8.110807    -5.945373    7.487920    -10.765313    -4.516826    0.890980    16.241552    -0.028925    -48.142525    46.013649    -38.820576    -1.548069    -8.593287    -17.785671    22.517372    -8.366391    2.368880    5.315666    18.388044    -5.435904    46.884548    43.412849    32.373997    0.081701    -20.330736    37.018021    -6.193600    -20.034027    -6.342867    5.586764    -24.584505    9.065999    -7.641031    26.943773    36.300892    -0.277552    -6.779705    -8.410631    -0.708362    -1.454638    0.787278    -3.453987    -2.545896    -2.497575    4.914607    3.114719    0.992356    -0.862389    -6.242225    -15.981456    -0.523716    -0.084335    0.566504
13.033770    80.222137    103.476990    2.417845    -7.181226    -158.041931    -1.386671    -11.725986    0.606899    0.940661    6.217052    0.698230    1.047864    8.074191    -6.128547    7.728400    -10.844304    -4.645244    0.905690    16.288675    0.051375    -48.508308    45.825294    -38.424957    -1.592810    -8.799870    -17.577362    22.660080    -8.570041    2.389153    5.281322    18.380919    -5.406926    46.839432    43.387894    32.403034    -0.014724    -20.350962    37.930649    -6.169036    -20.025557    -6.334518    5.500992    -24.775055    9.206123    -7.657526    27.111162    36.546738    -0.103053    -6.966999    -8.302668    -0.705545    -1.424029    0.784103    -3.315446    -2.524624    -2.821940    4.865098    3.336422    0.795270    -0.807043    -6.406117    -16.062862    -0.516581    -0.123604    0.558818
12.922905    80.189743    103.434143    2.603328    -7.108888    -157.430542    -1.353003    -11.690403    0.666496    0.910292    6.208199    0.755636    1.026302    8.046549    -6.324982    7.984573    -10.908467    -4.784111    0.916965    16.339046    0.126039    -48.879074    45.624519    -37.998203    -1.630390    -8.982832    -17.351065    22.758224    -8.750297    2.405228    5.247534    18.371469    -5.390791    46.781208    43.377087    32.449600    -0.124263    -20.347916    38.834053    -6.130013    -19.989202    -6.313066    5.402565    -24.946728    9.331021    -7.651662    27.265720    36.729191    0.072092    -7.170800    -8.184021    -0.702100    -1.377011    0.780206    -3.177564    -2.514073    -3.145256    4.818017    3.598295    0.597752    -0.754367    -6.585190    -16.162849    -0.513104    -0.160724    0.555084
12.806922    80.154800    103.384995    2.791764    -7.029022    -156.787979    -1.324271    -11.656226    0.734914    0.877059    6.189452    0.822618    1.000374    8.027276    -6.538791    8.262167    -10.960722    -4.936191    0.925740    16.393589    0.196790    -49.257034    45.404835    -37.536346    -1.660506    -9.140960    -17.103971    22.806612    -8.907049    2.412069    5.213916    18.358496    -5.387579    46.709118    43.380939    32.514431    -0.247883    -20.327068    39.739658    -6.078729    -19.929550    -6.281306    5.291134    -25.104223    9.437024    -7.624245    27.414877    36.840912    0.248753    -7.393919    -8.053030    -0.697347    -1.313435    0.774834    -3.038156    -2.517202    -3.472885    4.772343    3.910229    0.394387    -0.701392    -6.783242    -16.282389    -0.513169    -0.197995    0.555184
12.688263    80.118347    103.330589    2.977442    -6.942437    -156.128693    -1.301108    -11.623749    0.810201    0.839476    6.163266    0.897453    0.971650    8.015662    -6.764998    8.554550    -11.001434    -5.098013    0.932547    16.450502    0.263472    -49.629162    45.167583    -37.053169    -1.682162    -9.266172    -16.844311    22.800306    -9.033031    2.406176    5.181518    18.340981    -5.395549    46.626839    43.398724    32.594563    -0.380691    -20.292828    40.621216    -6.020783    -19.851877    -6.242844    5.169899    -25.243374    9.514484    -7.576966    27.558104    36.872906    0.419766    -7.629060    -7.917243    -0.691813    -1.236559    0.768576    -2.901895    -2.535429    -3.795802    4.729824    4.270433    0.189268    -0.645590    -6.996699    -16.419687    -0.515666    -0.237071    0.557915
12.563726    80.079994    103.269699    3.162765    -6.845716    -155.437332    -1.282520    -11.591636    0.893671    0.793582    6.132781    0.981294    0.940412    8.009905    -7.008381    8.868948    -11.034282    -5.272713    0.938166    16.509413    0.329558    -49.999924    44.902325    -36.540787    -1.697376    -9.359052    -16.568804    22.741026    -9.129524    2.385206    5.150685    18.317808    -5.411143    46.532791    43.429447    32.690353    -0.524285    -20.248970    41.495300    -5.960257    -19.758827    -6.199634    5.036533    -25.366159    9.558485    -7.511058    27.701355    36.821651    0.585894    -7.879264    -7.776166    -0.685278    -1.146833    0.761191    -2.767522    -2.570207    -4.120629    4.690121    4.692426    -0.024578    -0.580205    -7.230914    -16.576057    -0.517973    -0.284757    0.560447
12.435998    80.041298    103.203880    3.340935    -6.740025    -154.731857    -1.268428    -11.560103    0.982729    0.737464    6.102181    1.071873    0.908529    8.008630    -7.262386    9.196837    -11.060829    -5.455554    0.943140    16.567186    0.395001    -50.355740    44.609772    -36.015778    -1.709325    -9.415777    -16.287390    22.633911    -9.193604    2.347065    5.122615    18.289190    -5.430130    46.430351    43.470375    32.798138    -0.672728    -20.199118    42.334663    -5.903895    -19.655657    -6.153765    4.895135    -25.467978    9.561264    -7.431066    27.843292    36.685150    0.739073    -8.135793    -7.635841    -0.678107    -1.049719    0.753092    -2.640900    -2.622096    -4.436824    4.655515    5.171689    -0.242742    -0.502723    -7.480048    -16.747910    -0.517222    -0.344720    0.559681
